<?xml version="1.0" encoding="iso-8859-1"?>
<!-- Generator: Adobe Illustrator 19.0.0, SVG Export Plug-In . SVG Version: 6.00 Build 0)  -->
<svg version="1.1" id="Capa_1" xmlns="http://www.w3.org/2000/svg" xmlns:xlink="http://www.w3.org/1999/xlink" x="0px" y="0px"
	 viewBox="0 0 490.1 490.1" style="enable-background:new 0 0 490.1 490.1;" xml:space="preserve">
<g>
	<g>
		<path d="M211.8,0.05c-55,0-103.8,24.9-128.7,63.3H20.8C9.4,63.35,0,72.65,0,84.15v226.3c0,24.8,17.9,46.4,41.5,51v107.8
			c0,11.4,9.3,20.8,20.8,20.8c10.4,0,19.7-9.3,20.8-20.8v-108c23.1-5,40.5-26.2,40.5-49.8v-94.4c24.9,15.6,56.1,23.9,88.2,23.9
			c11.4,0,20.8-9.3,20.8-20.8V20.85C232.6,9.35,223.3,0.05,211.8,0.05z M193.2,197.25c-30.1-4.2-55.5-19.1-71.6-39.4
			c-12.9-16.4-38.3-5.3-37.4,12.5v140.1c0,6.2-5.2,11.4-10.4,11.4H52c-6.2,0-10.4-5.2-10.4-11.4v-205.5h55c8.3,0,15.6-4.2,18.7-11.4
			c12.5-27,42.6-45.7,77.9-50.9V197.25z"/>
		<path d="M469.3,0.05c-55,0-103.8,24.9-128.7,63.3h-62.3c-11.4,0-20.8,9.3-20.8,20.8v226.3c0,24.5,17.4,45.8,40.5,50.8v108
			c0,11.4,9.3,20.8,20.8,20.8c11.4,0,20.8-9.3,20.8-20.8v-107.8c23.6-4.6,41.5-26,41.5-50v-94.4c24.9,15.6,56.1,23.9,88.2,23.9
			c11.4,0,20.8-9.3,20.8-20.8V20.85C490.1,9.35,480.7,0.05,469.3,0.05z M449.6,197.25c-30.1-4.2-58.1-17.3-71.6-39.4
			c-9.3-15.2-37.4-16.2-37.4,12.5v140.1c0,6.2-5.2,11.4-10.4,11.4h-21.8c-6.2,0-10.4-5.2-10.4-11.4v-205.5h55
			c8.3,0,15.6-4.2,18.7-11.4c12.5-27,42.6-45.7,77.9-50.9L449.6,197.25L449.6,197.25z"/>
	</g>
</g>
<g>
</g>
<g>
</g>
<g>
</g>
<g>
</g>
<g>
</g>
<g>
</g>
<g>
</g>
<g>
</g>
<g>
</g>
<g>
</g>
<g>
</g>
<g>
</g>
<g>
</g>
<g>
</g>
<g>
</g>
</svg>
