<svg xmlns="http://www.w3.org/2000/svg" xmlns:xlink="http://www.w3.org/1999/xlink" preserveAspectRatio="xMidYMid" width="500" height="500" viewBox="0 0 500 500">
  <defs>
    <style>
      .cls-1 {
        fill: #000;
        fill-rule: evenodd;
      }
    </style>
  </defs>
  <path d="M400.640,118.515 C397.212,113.457 395.139,106.563 395.139,99.189 C395.139,91.307 397.514,83.936 401.322,78.867 C403.020,84.804 403.985,91.050 403.985,97.532 C403.985,104.861 402.790,111.903 400.640,118.515 ZM388.508,99.189 C388.508,110.126 392.179,119.745 397.769,125.778 C391.460,139.519 380.695,150.770 367.340,157.744 C361.942,150.232 350.737,145.016 337.654,145.016 C323.865,145.016 312.055,150.764 307.053,158.938 C292.871,152.231 281.372,140.784 274.630,126.621 C280.639,120.663 284.590,110.602 284.590,99.189 C284.590,87.089 280.105,76.612 273.479,70.831 C280.559,54.312 294.009,41.174 310.739,34.478 C316.757,40.207 326.538,43.974 337.654,43.974 C348.123,43.974 357.345,40.597 363.424,35.426 C379.352,42.462 392.087,55.393 398.786,71.490 C392.606,77.407 388.508,87.583 388.508,99.189 ZM336.549,63.299 C317.927,63.299 302.831,78.379 302.831,96.980 C302.831,115.581 317.927,130.661 336.549,130.661 C355.171,130.661 370.267,115.581 370.267,96.980 C370.267,78.379 355.171,63.299 336.549,63.299 ZM336.549,124.035 C321.618,124.035 309.466,111.897 309.466,96.979 C309.466,82.061 321.618,69.926 336.549,69.926 C351.479,69.926 363.632,82.061 363.632,96.979 C363.632,111.897 351.479,124.035 336.549,124.035 ZM318.439,31.989 C324.050,30.492 329.914,29.619 335.996,29.619 C342.913,29.619 349.584,30.666 355.873,32.584 C350.902,35.595 344.524,37.347 337.656,37.347 C330.311,37.347 323.479,35.337 318.439,31.989 ZM271.751,119.602 C269.365,112.674 268.007,105.269 268.007,97.532 C268.007,90.631 269.054,83.978 270.969,77.703 C275.327,82.737 277.959,90.689 277.959,99.189 C277.959,107.222 275.611,114.527 271.751,119.602 ZM201.055,480.995 C196.811,480.328 192.596,479.575 188.410,478.739 L188.410,315.628 L175.144,315.628 C175.144,294.822 175.144,262.471 175.144,234.188 L213.284,234.188 L213.284,315.628 L201.055,315.628 L201.055,480.995 ZM175.144,185.875 C175.179,184.500 175.094,183.253 174.914,182.111 C172.587,158.184 148.059,172.623 148.059,172.623 C145.491,173.361 143.081,173.861 140.768,174.228 L139.967,174.369 C137.917,174.661 135.999,174.772 134.143,174.801 L132.642,174.819 C131.081,174.787 129.614,174.635 128.188,174.432 C127.468,174.326 126.751,174.218 126.064,174.071 C124.945,173.839 123.879,173.546 122.847,173.214 C121.964,172.928 121.106,172.612 120.283,172.262 L120.276,172.258 C122.266,164.100 123.984,155.233 125.354,146.011 L125.436,145.420 C125.855,142.570 126.246,139.704 126.596,136.809 L126.782,135.129 C127.078,132.575 127.362,130.021 127.601,127.455 C127.699,126.416 127.766,125.380 127.855,124.340 C128.032,122.219 128.216,120.098 128.353,117.985 C128.459,116.333 128.521,114.703 128.601,113.063 C128.674,111.556 128.771,110.040 128.822,108.545 C128.929,105.390 128.987,102.264 128.987,99.189 C128.987,95.986 128.925,92.736 128.813,89.462 C128.784,88.655 128.728,87.839 128.694,87.030 C128.588,84.532 128.473,82.032 128.306,79.518 C128.253,78.721 128.177,77.926 128.118,77.129 C127.929,74.559 127.727,71.995 127.478,69.432 C127.417,68.819 127.343,68.214 127.280,67.602 C126.996,64.834 126.688,62.079 126.339,59.344 L126.178,58.174 C125.789,55.210 125.367,52.281 124.905,49.389 L124.819,48.868 C124.320,45.777 123.782,42.746 123.206,39.772 L123.184,39.664 C121.984,33.478 120.624,27.620 119.129,22.187 L119.129,22.183 C131.430,18.244 145.849,20.784 145.849,20.784 C208.863,37.901 213.284,101.397 213.284,101.397 L213.284,227.562 L175.144,227.562 C175.144,210.971 175.144,195.741 175.144,185.875 ZM117.138,170.794 C115.718,169.988 114.409,169.082 113.190,168.108 C117.692,147.538 119.594,120.616 119.594,99.189 C119.594,76.042 117.390,46.455 112.065,25.431 C113.345,24.605 114.689,23.889 116.095,23.284 C121.633,43.607 125.673,71.373 125.673,99.189 C125.673,124.333 122.120,150.276 117.138,170.794 ZM110.400,165.538 C100.227,155.223 98.312,140.047 98.312,140.047 C98.170,139.010 98.084,138.064 97.952,137.044 C101.339,131.193 103.747,116.472 103.747,99.189 C103.747,80.864 101.043,65.389 97.333,60.349 C99.959,43.177 103.839,35.140 103.839,35.140 C105.098,32.038 106.990,29.609 109.214,27.615 C113.543,45.338 116.276,70.796 116.276,99.189 C116.276,124.893 114.034,148.194 110.400,165.538 ZM97.121,130.096 C94.079,102.611 94.716,81.492 96.541,66.265 C98.452,72.003 100.428,83.074 100.428,99.189 C100.428,113.666 98.831,123.969 97.121,130.096 ZM361.090,160.610 C353.319,163.698 344.868,165.446 335.996,165.446 C328.053,165.446 320.461,164.015 313.374,161.514 C317.673,155.585 327.200,151.641 337.656,151.641 C347.468,151.641 356.445,155.142 361.090,160.610 ZM354.237,225.077 L315.544,225.077 L315.544,172.071 L354.237,172.071 L354.237,225.077 ZM354.237,306.242 L339.935,306.242 L339.935,471.633 C336.639,472.622 333.325,473.572 329.985,474.454 L329.985,306.242 L315.544,306.242 L315.544,231.703 L354.237,231.703 L354.237,306.242 Z" class="cls-1"/>
</svg>
