<svg id="Capa_1" enable-background="new 0 0 512 512" height="512" viewBox="0 0 512 512" width="512" xmlns="http://www.w3.org/2000/svg"><g><path d="m113.338 29.323c-31.676 0-70.01 14.252-97.66 36.309-9.964 7.949-15.678 19.935-15.678 32.887v68.956c0 12.952 5.714 24.938 15.679 32.887 27.65 22.057 65.982 36.31 97.659 36.31 12.206 0 24.031-2.068 35.29-6.159v88.682c0 4.15 3.364 7.515 7.515 7.515s7.515-3.364 7.515-7.515v-126.217c0-4.15-3.364-7.515-7.515-7.515s-7.515 3.365-7.515 7.515v21.351c-11.133 4.851-22.981 7.312-35.29 7.312-28.48 0-63.135-12.965-88.287-33.029-6.369-5.081-10.021-12.785-10.021-21.138v-68.955c0-8.352 3.653-16.057 10.021-21.138 25.152-20.064 59.806-33.028 88.287-33.028 48.879 0 88.645 39.766 88.645 88.644v325.631c0 4.974-4.047 9.021-9.021 9.021h-20.285c-4.974 0-9.02-4.046-9.02-9.021v-109.376c0-4.15-3.364-7.515-7.515-7.515s-7.515 3.365-7.515 7.515v109.375c0 13.261 10.789 24.05 24.05 24.05h20.285c13.261 0 24.05-10.789 24.05-24.05v-325.63c0-57.166-46.508-103.674-103.674-103.674z"/><path d="m46.898 122.887v16.565c0 4.15 3.364 7.515 7.515 7.515s7.515-3.364 7.515-7.515v-16.565c0-4.15-3.364-7.515-7.515-7.515s-7.515 3.365-7.515 7.515z"/><path d="m134.719 74.41c-3.91-1.394-8.208.643-9.604 4.551-1.395 3.909.643 8.208 4.551 9.603.123.044 12.534 4.746 22.65 18.096 6.301 7.731 17.708-.963 11.979-9.076-12.956-17.099-28.904-22.934-29.576-23.174z"/><path d="m496.321 65.632c-27.649-22.057-65.982-36.309-97.658-36.309-57.166 0-103.674 46.508-103.674 103.674v44.952c0 4.15 3.364 7.515 7.515 7.515s7.515-3.365 7.515-7.515v-44.952c0-48.879 39.766-88.644 88.645-88.644 28.48 0 63.135 12.964 88.286 33.028 6.37 5.081 10.023 12.786 10.023 21.138v68.956c0 8.353-3.653 16.057-10.022 21.138-25.152 20.064-59.806 33.029-88.287 33.029-12.308 0-24.157-2.461-35.29-7.312v-21.351c0-4.15-3.364-7.515-7.515-7.515s-7.515 3.365-7.515 7.515v177.054c0 4.15 3.364 7.515 7.515 7.515s7.515-3.365 7.515-7.515v-139.52c11.258 4.091 23.083 6.159 35.29 6.159 31.676 0 70.009-14.252 97.658-36.309 9.965-7.949 15.679-19.935 15.679-32.887v-68.957c-.001-12.952-5.715-24.938-15.68-32.887z"/><path d="m355.858 392.576c-4.151 0-7.515 3.365-7.515 7.515v58.537c0 4.974-4.047 9.021-9.021 9.021h-20.285c-4.974 0-9.021-4.046-9.021-9.021v-250.62c0-4.15-3.364-7.515-7.515-7.515s-7.515 3.364-7.515 7.515v250.62c0 13.261 10.789 24.05 24.05 24.05h20.285c13.261 0 24.05-10.789 24.05-24.05v-58.537c.002-4.151-3.362-7.515-7.513-7.515z"/><path d="m465.102 139.452v-16.565c0-4.15-3.364-7.515-7.515-7.515s-7.515 3.365-7.515 7.515v16.565c0 4.15 3.364 7.515 7.515 7.515s7.515-3.364 7.515-7.515z"/><path d="m349.157 108.113c3.278 2.492 8.008 1.875 10.527-1.451 10.056-13.271 22.387-17.997 22.682-18.108 3.887-1.407 5.91-5.694 4.519-9.591-1.395-3.909-5.696-5.947-9.604-4.551-.672.24-16.62 6.075-29.575 23.175-2.507 3.305-1.858 8.019 1.451 10.526z"/></g></svg>