<?xml version="1.0" encoding="iso-8859-1"?>
<!-- Generator: Adobe Illustrator 19.0.0, SVG Export Plug-In . SVG Version: 6.00 Build 0)  -->
<svg version="1.1" id="Capa_1" xmlns="http://www.w3.org/2000/svg" xmlns:xlink="http://www.w3.org/1999/xlink" x="0px" y="0px"
	 viewBox="0 0 489.1 489.1" style="enable-background:new 0 0 489.1 489.1;" xml:space="preserve">
<g>
	<path d="M451.5,278.65v-90.3c0-104-92.6-188.3-207-188.3s-207,84.3-207,188.3v91.3c-23,22.3-37.5,54.5-37.5,89.7
		c0,65.5,49.9,119.6,112.4,119.6c10.4,0,19.8-9.4,20.8-19.8v-199.6c0-11.4-9.4-20.8-20.8-20.8c-12.4,0-24.3,2.2-35.4,6.2v-66.5
		c0-81.1,74.9-147.7,166.5-147.7S410,107.35,410,188.45v64.8c-10.5-3.6-21.7-5.5-33.3-5.5c-11.4,0-20.8,9.4-20.8,20.8v199.7
		c0,11.4,9.4,20.8,20.8,20.8c62.4,0,112.4-54.1,112.4-120.7C489,332.75,474.4,300.75,451.5,278.65z M91.6,444.25
		c-29.1-9.4-51-40.6-51-75.9s21.8-66.6,51-75.9V444.25z M397.4,445.35v-152.9c29.1,10.4,51,41.6,51,77
		C448.4,404.75,426.6,435.95,397.4,445.35z"/>
</g>
<g>
</g>
<g>
</g>
<g>
</g>
<g>
</g>
<g>
</g>
<g>
</g>
<g>
</g>
<g>
</g>
<g>
</g>
<g>
</g>
<g>
</g>
<g>
</g>
<g>
</g>
<g>
</g>
<g>
</g>
</svg>
