<svg xmlns="http://www.w3.org/2000/svg" xmlns:xlink="http://www.w3.org/1999/xlink" preserveAspectRatio="xMidYMid" width="500" height="500" viewBox="0 0 500 500">
  <defs>
    <style>
      .cls-1 {
        fill: #000;
        fill-rule: evenodd;
      }
    </style>
  </defs>
  <path d="M464.938,277.620 C461.811,319.572 452.247,356.471 443.676,377.260 C442.990,375.092 441.909,373.235 440.225,371.869 C436.155,368.563 430.464,368.987 426.377,369.925 C435.919,350.230 448.649,315.650 451.553,276.624 C454.387,238.565 452.393,187.700 430.661,145.402 C419.058,149.483 405.658,146.026 397.637,135.831 C379.417,112.684 348.924,73.937 253.046,72.982 L250.519,72.976 C151.897,72.976 119.702,113.876 102.405,135.846 C96.578,143.246 87.916,147.111 79.168,147.111 C75.895,147.111 72.613,146.562 69.460,145.463 C31.514,220.600 56.180,327.341 72.890,367.994 C68.870,367.171 63.606,366.951 59.750,370.082 C58.783,370.867 57.989,371.793 57.351,372.844 C39.699,326.889 17.086,216.969 58.056,138.179 C47.868,127.759 46.718,111.178 55.973,99.422 C77.794,71.705 123.200,14.024 250.574,14.024 L253.399,14.030 C377.850,15.276 422.578,72.102 444.069,99.412 C453.316,111.165 452.171,127.723 442.011,138.141 C465.689,183.410 467.933,237.391 464.938,277.620 ZM76.791,373.907 L93.298,448.025 C93.298,448.025 83.938,457.872 78.699,444.564 C72.995,430.076 65.488,408.898 60.620,385.268 C56.469,365.126 76.791,373.907 76.791,373.907 ZM98.287,449.400 L80.744,370.644 L78.606,369.717 C78.287,369.580 77.296,369.178 75.913,368.747 C76.378,363.122 77.813,359.185 79.864,355.231 C86.391,342.656 107.352,336.320 118.440,333.771 C118.041,336.362 117.871,339.117 118.098,342.121 L118.273,344.500 C119.094,355.817 119.866,366.509 129.979,409.499 C139.530,450.112 142.939,458.181 146.884,467.520 L148.478,471.333 C149.613,474.103 150.931,476.541 152.403,478.666 C141.373,481.177 120.078,484.552 108.412,476.634 C101.355,471.844 97.235,466.949 92.796,454.077 C94.887,452.841 96.330,451.462 96.614,451.164 L98.287,449.400 ZM122.656,341.778 C121.733,329.546 126.551,321.599 136.655,319.232 L152.343,315.555 L166.994,402.000 L190.986,479.903 L175.298,483.580 C165.192,485.949 157.428,481.122 152.710,469.604 C147.996,458.086 145.161,454.104 134.428,408.455 C123.690,362.804 123.579,354.011 122.656,341.778 ZM156.808,314.559 C166.574,312.810 175.905,316.632 178.404,328.715 C180.899,340.797 184.527,364.028 192.192,396.639 C199.860,429.248 204.134,443.040 208.459,456.540 C211.089,464.756 204.954,476.040 195.428,478.809 L171.364,400.659 L156.808,314.559 ZM307.786,398.423 C315.453,365.815 319.078,342.583 321.573,330.502 C324.071,318.418 333.404,314.596 343.169,316.345 L328.613,402.444 L304.549,480.593 C295.024,477.826 288.889,466.541 291.517,458.328 C295.843,444.826 300.118,431.034 307.786,398.423 ZM347.634,317.340 L363.322,321.015 C373.427,323.384 378.245,331.330 377.322,343.564 C376.399,355.794 376.282,364.589 365.550,410.241 C354.818,455.893 351.986,459.873 347.266,471.394 C342.549,482.910 334.784,487.735 324.680,485.365 L308.986,481.689 L333.119,403.203 L347.634,317.340 ZM353.086,469.315 C357.036,459.977 360.450,451.908 370.001,411.285 C380.113,368.260 380.886,357.572 381.707,346.255 L381.881,343.908 C382.107,340.903 381.936,338.147 381.536,335.555 C392.624,338.105 413.585,344.440 420.112,357.016 C422.165,360.972 423.600,364.911 424.065,370.542 C422.682,370.971 421.692,371.373 421.374,371.508 L419.236,372.435 L401.688,451.191 L403.361,452.951 C403.645,453.248 405.090,454.627 407.183,455.862 C402.743,468.735 398.623,473.632 391.566,478.423 C379.898,486.342 358.599,482.963 347.572,480.451 C349.044,478.327 350.362,475.889 351.498,473.119 L353.086,469.315 ZM423.189,375.694 C423.189,375.694 443.506,366.911 439.358,387.053 C434.489,410.682 426.984,431.863 421.279,446.351 C416.039,459.657 406.677,449.810 406.677,449.810 L423.189,375.694 Z" class="cls-1"/>
</svg>
