<?xml version="1.0" encoding="iso-8859-1"?>
<!-- Generator: Adobe Illustrator 19.0.0, SVG Export Plug-In . SVG Version: 6.00 Build 0)  -->
<svg version="1.1" id="Capa_1" xmlns="http://www.w3.org/2000/svg" xmlns:xlink="http://www.w3.org/1999/xlink" x="0px" y="0px"
	 viewBox="0 0 489.9 489.9" style="enable-background:new 0 0 489.9 489.9;" xml:space="preserve">
<g>
	<g>
		<path d="M20.8,96.2h23.7c9,31.4,37.8,54.1,73,54.1s64.8-22.7,73.4-54.1h277.2c11.4,0,21.8-9.4,21.8-20.8s-9.4-20.8-20.8-20.8
			H190.6c-9-31.4-37.8-54.1-73-54.1c-34.4,0-63.8,22.7-73,54.1H20.8C9.4,54.6,0,64,0,75.4C0,86.8,9.4,96.2,20.8,96.2z M117.6,41.1
			c19.8,0,36.4,15.6,35.4,34.3c0,18.7-15.6,34.3-35.4,34.3S82.2,94.1,82.2,75.4S97.8,41.1,117.6,41.1z"/>
		<path d="M20.8,265.8h277.6c9,31.4,37.8,54.1,73,54.1c34.4,0,63.8-22.7,73-54.1h23.8c11.4,0,20.8-9.4,20.8-20.8
			s-9.4-20.8-20.8-20.8h-23.7c-9-31.4-37.8-54.1-73-54.1c-34.4,0-63.8,22.7-73,54.1H20.8C9.4,224.2,0,233.6,0,245
			S9.4,265.8,20.8,265.8z M371.4,210.7c19.8,0,35.4,15.6,35.4,34.3s-15.6,34.3-35.4,34.3S336,263.7,336,245S351.6,210.7,371.4,210.7
			z"/>
		<path d="M469.2,392.7H190.3c-9.3-30.8-37.9-53.1-72.7-53.1c-34,0-63.1,22.2-72.7,53.1H20.8C9.4,392.7,0,402.1,0,413.5
			s9.4,20.8,20.8,20.8h23.4c8.6,31.9,37.7,55.1,73.3,55.1s64.7-23.2,73.3-55.1h277.3c11.4,0,21.8-9.4,21.8-20.8
			S480.6,392.7,469.2,392.7z M117.6,448.9c-19.8,0-35.4-15.6-35.4-34.3c0-18.7,15.6-34.3,35.4-34.3s35.4,15.6,35.4,34.3
			C152.9,433.3,137.3,448.9,117.6,448.9z"/>
	</g>
</g>
<g>
</g>
<g>
</g>
<g>
</g>
<g>
</g>
<g>
</g>
<g>
</g>
<g>
</g>
<g>
</g>
<g>
</g>
<g>
</g>
<g>
</g>
<g>
</g>
<g>
</g>
<g>
</g>
<g>
</g>
</svg>
