<?xml version="1.0" encoding="iso-8859-1"?>
<!-- Generator: Adobe Illustrator 19.0.0, SVG Export Plug-In . SVG Version: 6.00 Build 0)  -->
<svg version="1.1" id="Capa_1" xmlns="http://www.w3.org/2000/svg" xmlns:xlink="http://www.w3.org/1999/xlink" x="0px" y="0px"
	 viewBox="0 0 489.6 489.6" style="enable-background:new 0 0 489.6 489.6;" xml:space="preserve">
<g>
	<g>
		<path d="M243.8,324.5c66.9,0,118.8-53.1,118.8-116.7v-90.6c0-64.6-51-116.7-117.7-116.7c-65.7,0-117.7,52.1-117.7,116.7v90.6
			C127.1,272.4,179.2,324.5,243.8,324.5z M167.7,116.1c0-21.1,8.8-40.3,22.9-54.2v38.5c0,11.5,9.4,20.8,20.8,20.8
			s19.8-9.4,20.8-20.8V41c8.8-1.7,21.3-0.6,25,0v59.5c0,11.5,9.4,20.8,20.8,20.8c11.5,0,20.8-9.4,20.8-20.8V62
			c14.1,13.8,22.9,33.1,22.9,54.2v90.6c0,41.7-34.4,76.1-76.1,76.1c-21.9,0-74.1-12.2-78.1-76.1v-90.7H167.7z"/>
		<path d="M468.8,140.1h-59.4c-14.4,0-21.2,5.8-17.7,31.7v74.5c0,58.3-49,106.3-109.4,106.3h-71.9C150,352.6,101,304.7,101,246.3
			v-84.4c0-10.4-6.7-21.2-20.8-21.9H20.8C9.3,140,0,149.4,0,160.8s9.3,21,20.8,21h38.5v64.6c0,81.3,67.7,146.9,150,146.9h14.6v54.2
			h-55.2c-11.5,0-20.8,9.4-20.8,20.8c0,11.5,9.4,20.8,20.8,20.8h152.1c11.5,0,21.9-9.4,21.9-20.8c0-11.5-9.4-20.8-20.8-20.8h-56.3
			v-54.2h15.6c82.3,0,149-66.7,152.1-146.9v-64.6h35.5c11.5,0,20.8-9.4,20.8-20.8S480.3,140.1,468.8,140.1z"/>
	</g>
</g>
<g>
</g>
<g>
</g>
<g>
</g>
<g>
</g>
<g>
</g>
<g>
</g>
<g>
</g>
<g>
</g>
<g>
</g>
<g>
</g>
<g>
</g>
<g>
</g>
<g>
</g>
<g>
</g>
<g>
</g>
</svg>
