<?xml version="1.0" encoding="iso-8859-1"?>
<!-- Generator: Adobe Illustrator 19.0.0, SVG Export Plug-In . SVG Version: 6.00 Build 0)  -->
<svg version="1.1" id="Capa_1" xmlns="http://www.w3.org/2000/svg" xmlns:xlink="http://www.w3.org/1999/xlink" x="0px" y="0px"
	 viewBox="0 0 489 489" style="enable-background:new 0 0 489 489;" xml:space="preserve">
<g>
	<g>
		<path d="M244.5,0C109.3,0,0,109.3,0,244.5S109.3,489,244.5,489S489,379.7,489,244.5S379.7,0,244.5,0z M244.5,448.4
			c-112.4,0-203.9-91.6-203.9-203.9S132.1,40.6,244.5,40.6s203.9,91.5,203.9,203.9S356.9,448.4,244.5,448.4z"/>
		<path d="M280.9,116.5c-11.3-13.9-36.4-12.1-36.4,12.5v150.1c-13.2-4.9-28.9-7.6-45.8-7.6c-48.9,0-86.3,22.9-86.3,54.1
			s37.5,54.1,86.3,54.1c49.9,0,87.2-22.9,87.2-54.1c0-0.5,0.2-137.3,0.2-137.3l53.1,68.7c7.3,8.3,20.8,10.4,29.1,3.1
			c8.3-7.3,10.4-20.8,3.1-29.1L280.9,116.5z M199.8,339.2c-26,0-42.7-9.4-45.8-13.5c3.1-4.2,18.7-12.5,45.8-13.5
			c26,0,43.5,9.4,46.7,13.5C242.3,330.8,225.8,339.2,199.8,339.2z"/>
	</g>
</g>
<g>
</g>
<g>
</g>
<g>
</g>
<g>
</g>
<g>
</g>
<g>
</g>
<g>
</g>
<g>
</g>
<g>
</g>
<g>
</g>
<g>
</g>
<g>
</g>
<g>
</g>
<g>
</g>
<g>
</g>
</svg>
