<?xml version="1.0" encoding="UTF-8"?>
<svg width="21px" height="36px" viewBox="0 0 21 36" version="1.1" xmlns="http://www.w3.org/2000/svg" xmlns:xlink="http://www.w3.org/1999/xlink">
    <!-- Generator: Sketch 46.2 (44496) - http://www.bohemiancoding.com/sketch -->
    <title>Pause</title>
    <desc>Created with Sketch.</desc>
    <defs></defs>
    <g id="Page-1" stroke="none" stroke-width="1" fill="none" fill-rule="evenodd">
        <g id="Icons-Pattern-One" transform="translate(-716.000000, -93.000000)" fill="#Faf9f9">
            <g id="Pause" transform="translate(709.000000, 93.000000)">
                <path d="M10.75,0 C12.8210678,-3.80448985e-16 14.5,1.67893219 14.5,3.75 L14.5,32.25 C14.5,34.3210678 12.8210678,36 10.75,36 C8.67893219,36 7,34.3210678 7,32.25 L7,3.75 C7,1.67893219 8.67893219,3.80448985e-16 10.75,0 Z M24.1785714,0 C26.2496392,-3.80448985e-16 27.9285714,1.67893219 27.9285714,3.75 L27.9285714,32.25 C27.9285714,34.3210678 26.2496392,36 24.1785714,36 C22.1075036,36 20.4285714,34.3210678 20.4285714,32.25 L20.4285714,3.75 C20.4285714,1.67893219 22.1075036,3.80448985e-16 24.1785714,0 Z"></path>
            </g>
        </g>
    </g>
</svg>