<svg xmlns="http://www.w3.org/2000/svg" width="20" height="15.557" viewBox="0 0 20 15.557"><g transform="translate(-72 -545.586)"><path d="M18.6,16.8A1.8,1.8,0,1,1,16.8,15,1.8,1.8,0,0,1,18.6,16.8Z" transform="translate(65.2 536.564)" fill="none" stroke="#1fb4c2" stroke-linecap="round" stroke-linejoin="round" stroke-width="2"/><path d="M15.82,9.943a5.4,5.4,0,0,1,0,7.643m-7.634-.009a5.4,5.4,0,0,1,0-7.643M18.368,7.4a9,9,0,0,1,0,12.729m-12.729,0a9,9,0,0,1,0-12.729" transform="translate(69.997 539.605)" fill="none" stroke="#faf9f9" stroke-linecap="round" stroke-linejoin="round" stroke-width="2"/></g></svg>