<?xml version="1.0" encoding="UTF-8"?>
<svg width="36px" height="33px" viewBox="0 0 36 33" version="1.1" xmlns="http://www.w3.org/2000/svg" xmlns:xlink="http://www.w3.org/1999/xlink">
    <!-- Generator: Sketch 46.2 (44496) - http://www.bohemiancoding.com/sketch -->
    <title>Repeat One</title>
    <desc>Created with Sketch.</desc>
    <defs></defs>
    <g id="Page-1" stroke="none" stroke-width="1" fill="none" fill-rule="evenodd">
        <g id="Icons-Pattern-One" transform="translate(-407.000000, -281.000000)" fill-rule="nonzero" fill="#Faf9f9">
            <g id="Repeat-One" transform="translate(407.000000, 279.000000)">
                <path d="M8.64,27.9710983 L19.2030566,27.9710983 C28.1531421,27.9710983 32.16,24.7468816 32.16,18 L36,18 C36,27.2145828 30.0888956,31.9710983 19.2030566,31.9710983 L8.64,31.9710983 L8.64,35 L5.68434189e-14,30 L8.64,25 L8.64,27.9710983 Z M18.1398406,12.0289017 L27.36,12.0289017 L27.36,15 L36,10 L27.36,5 L27.36,8.02890173 L18.3803626,8.02890173 C18.4590669,8.50759935 18.5,8.99901945 18.5,9.5 C18.5,10.3780062 18.374273,11.2266472 18.1398406,12.0289017 Z M4.79404702,17.1731298 C4.15125794,18.5127491 3.84,20.119552 3.84,22 L0,22 C0,18.9527141 0.646463013,16.392981 1.90552335,14.3315947 C2.63994311,15.4835786 3.62927329,16.457246 4.79404702,17.1731298 L4.79404702,17.1731298 Z M9.5,17 C5.35786438,17 2,13.6421356 2,9.5 C2,5.35786438 5.35786438,2 9.5,2 C13.6421356,2 17,5.35786438 17,9.5 C17,13.6421356 13.6421356,17 9.5,17 Z M9.52196733,12.7072727 C9.52196733,12.9981833 9.58923938,13.2181811 9.72378551,13.3672727 C9.85833164,13.5163644 10.0365117,13.5909091 10.258331,13.5909091 C10.7565153,13.5909091 11.0056037,13.2254582 11.0056037,12.4945455 L11.0056037,6.24909091 C11.0056037,5.98727142 10.9474225,5.78181893 10.8310582,5.63272727 C10.714694,5.48363562 10.5601501,5.40909091 10.3674219,5.40909091 C10.1965119,5.40909091 10.0801495,5.44181785 10.018331,5.50727273 C9.95651247,5.5727276 9.82378653,5.74727131 9.62014915,6.03090909 C9.41651177,6.31454687 9.18287774,6.57090795 8.91924006,6.8 C8.65560237,7.02909205 8.30378771,7.24727169 7.86378551,7.45454545 C7.56923858,7.59272796 7.36378609,7.70545411 7.24742187,7.79272727 C7.13105766,7.88000044 7.07287642,8.01636271 7.07287642,8.20181818 C7.07287642,8.36181898 7.13196674,8.50272666 7.25014915,8.62454545 C7.36833156,8.74636425 7.50378475,8.80727273 7.65651278,8.80727273 C7.97651438,8.80727273 8.59832635,8.45273082 9.52196733,7.74363636 L9.52196733,12.7072727 Z"></path>
            </g>
        </g>
    </g>
</svg>