<svg xmlns="http://www.w3.org/2000/svg" width="20" height="20" viewBox="0 0 20 20"><g transform="translate(-1794.3 -70)"><path d="M18.409,15.955A2.455,2.455,0,1,1,15.955,13.5,2.455,2.455,0,0,1,18.409,15.955Z" transform="translate(1788.345 64.045)" fill="none" stroke="#1fb4c2" stroke-linecap="round" stroke-linejoin="round" stroke-width="2"/><path d="M16.555,12.955a1.35,1.35,0,0,0,.27,1.489l.049.049a1.637,1.637,0,1,1-2.315,2.315l-.049-.049a1.361,1.361,0,0,0-2.307.965v.139a1.636,1.636,0,1,1-3.273,0V17.79a1.35,1.35,0,0,0-.884-1.235,1.35,1.35,0,0,0-1.489.27l-.049.049a1.637,1.637,0,1,1-2.315-2.315l.049-.049A1.361,1.361,0,0,0,3.275,12.2H3.136a1.636,1.636,0,1,1,0-3.273H3.21a1.35,1.35,0,0,0,1.235-.884,1.35,1.35,0,0,0-.27-1.489l-.049-.049A1.637,1.637,0,1,1,6.442,4.192l.049.049a1.35,1.35,0,0,0,1.489.27h.065a1.35,1.35,0,0,0,.818-1.235V3.136a1.636,1.636,0,0,1,3.273,0V3.21a1.361,1.361,0,0,0,2.307.965l.049-.049a1.637,1.637,0,1,1,2.315,2.315l-.049.049a1.35,1.35,0,0,0-.27,1.489v.065a1.35,1.35,0,0,0,1.235.818h.139a1.636,1.636,0,0,1,0,3.273H17.79a1.35,1.35,0,0,0-1.235.818Z" transform="translate(1793.8 69.5)" fill="none" stroke="#faf9f9" stroke-linecap="round" stroke-linejoin="round" stroke-width="2"/></g></svg>