<svg xmlns="http://www.w3.org/2000/svg" xmlns:xlink="http://www.w3.org/1999/xlink" preserveAspectRatio="xMidYMid" width="500" height="500" viewBox="0 0 500 500">
  <defs>
    <style>
      .cls-1 {
        fill: #000;
        fill-rule: evenodd;
      }
    </style>
  </defs>
  <path d="M346.373,479.027 L153.614,479.027 C138.935,479.027 126.990,467.124 126.990,452.493 L126.990,48.513 C126.990,33.881 138.935,21.979 153.614,21.979 L346.373,21.979 C361.055,21.979 372.997,33.881 372.997,48.513 L372.997,452.493 C372.997,467.124 361.055,479.027 346.373,479.027 ZM371.666,48.510 C371.666,34.613 360.320,23.310 346.371,23.310 L153.617,23.310 C139.668,23.310 128.323,34.613 128.323,48.510 L128.323,452.493 C128.323,466.390 139.668,477.697 153.617,477.697 L346.371,477.697 C360.320,477.697 371.666,466.390 371.666,452.493 L371.666,48.510 ZM346.373,473.719 L153.614,473.719 C141.898,473.719 132.315,464.168 132.315,452.493 L132.315,48.513 C132.315,36.838 141.898,27.285 153.614,27.285 L346.373,27.285 C358.089,27.285 367.673,36.838 367.673,48.513 L367.673,452.493 C367.673,464.168 358.089,473.719 346.373,473.719 ZM320.168,461.407 C338.013,461.407 352.476,446.991 352.476,429.208 C352.476,411.423 338.013,397.010 320.168,397.010 C302.324,397.010 287.856,411.423 287.856,429.208 C287.856,446.991 302.324,461.407 320.168,461.407 ZM179.825,461.407 C197.668,461.407 212.130,446.991 212.130,429.208 C212.130,411.423 197.668,397.010 179.825,397.010 C161.979,397.010 147.513,411.423 147.513,429.208 C147.513,446.991 161.979,461.407 179.825,461.407 ZM249.994,38.477 C223.523,38.477 201.984,59.939 201.984,86.320 C201.984,112.701 223.523,134.164 249.994,134.164 C276.465,134.164 297.995,112.701 297.995,86.320 C297.995,59.939 276.465,38.477 249.994,38.477 ZM249.994,140.450 C191.286,140.450 143.525,188.052 143.525,246.562 C143.525,305.072 191.286,352.674 249.994,352.674 C308.702,352.674 356.462,305.072 356.462,246.562 C356.462,188.052 308.702,140.450 249.994,140.450 ZM249.995,348.698 C193.395,348.698 147.513,302.971 147.513,246.563 C147.513,190.155 193.395,144.428 249.995,144.428 C306.595,144.428 352.476,190.155 352.476,246.563 C352.476,302.971 306.595,348.698 249.995,348.698 ZM249.994,152.620 C198.018,152.620 155.728,194.762 155.728,246.562 C155.728,298.366 198.018,340.513 249.994,340.513 C301.970,340.513 344.259,298.366 344.259,246.562 C344.259,194.762 301.970,152.620 249.994,152.620 ZM249.995,336.537 C200.136,336.537 159.717,296.253 159.717,246.563 C159.717,196.876 200.136,156.594 249.995,156.594 C299.850,156.594 340.270,196.876 340.270,246.563 C340.270,296.253 299.850,336.537 249.995,336.537 ZM309.095,308.295 C309.878,309.076 311.150,309.076 311.933,308.295 C312.716,307.515 312.716,306.249 311.933,305.468 C311.150,304.685 309.878,304.685 309.095,305.468 C308.309,306.249 308.309,307.515 309.095,308.295 ZM249.995,333.867 C251.104,333.867 252.003,332.970 252.003,331.864 C252.003,330.760 251.104,329.864 249.995,329.864 C248.886,329.864 247.987,330.760 247.987,331.864 C247.987,332.970 248.886,333.867 249.995,333.867 ZM188.054,308.295 C188.837,309.076 190.109,309.076 190.895,308.295 C191.677,307.515 191.677,306.249 190.895,305.468 C190.109,304.685 188.837,304.685 188.054,305.468 C187.270,306.249 187.270,307.515 188.054,308.295 ZM164.403,244.563 C163.294,244.563 162.397,245.461 162.397,246.565 C162.397,247.670 163.294,248.567 164.403,248.567 C165.514,248.567 166.414,247.670 166.414,246.565 C166.414,245.461 165.514,244.563 164.403,244.563 ZM190.895,184.834 C190.109,184.052 188.837,184.052 188.054,184.834 C187.270,185.617 187.270,186.882 188.054,187.666 C188.837,188.444 190.109,188.444 190.895,187.666 C191.677,186.882 191.677,185.617 190.895,184.834 ZM249.995,159.263 C248.886,159.263 247.987,160.161 247.987,161.266 C247.987,162.370 248.886,163.267 249.995,163.267 C251.104,163.267 252.003,162.370 252.003,161.266 C252.003,160.161 251.104,159.263 249.995,159.263 ZM311.933,184.834 C311.150,184.052 309.878,184.052 309.095,184.834 C308.309,185.617 308.309,186.882 309.095,187.666 C309.878,188.444 311.150,188.444 311.933,187.666 C312.716,186.882 312.716,185.617 311.933,184.834 ZM335.584,248.567 C336.692,248.567 337.589,247.670 337.589,246.565 C337.589,245.461 336.692,244.563 335.584,244.563 C334.476,244.563 333.573,245.461 333.573,246.565 C333.573,247.670 334.476,248.567 335.584,248.567 ZM329.623,246.357 L329.540,244.749 L329.545,244.540 C329.545,200.754 293.930,165.258 249.995,165.258 C206.060,165.258 170.442,200.754 170.442,244.540 L170.467,245.518 L170.409,246.638 L170.466,247.751 L170.442,248.713 C170.442,292.499 206.060,327.994 249.995,327.994 C293.930,327.994 329.545,292.499 329.545,248.713 L329.531,248.144 L329.623,246.357 ZM249.995,323.272 C207.486,323.272 173.026,288.928 173.026,246.563 C173.026,204.202 207.486,169.858 249.995,169.858 C292.500,169.858 326.961,204.202 326.961,246.563 C326.961,288.928 292.500,323.272 249.995,323.272 ZM250.298,174.684 C210.400,174.684 178.058,206.918 178.058,246.680 C178.058,286.444 210.400,318.678 250.298,318.678 C290.194,318.678 322.540,286.444 322.540,246.680 C322.540,206.918 290.194,174.684 250.298,174.684 ZM249.496,217.887 C232.551,217.887 218.654,230.367 216.234,246.583 L216.233,246.563 C216.233,227.982 231.348,212.916 249.995,212.916 C268.641,212.916 283.754,227.982 283.754,246.563 C283.754,248.259 283.496,249.885 283.254,251.514 C283.243,232.942 268.136,217.887 249.496,217.887 ZM249.496,219.000 C267.965,219.000 282.935,233.447 282.935,251.853 C282.935,252.810 282.741,253.714 282.661,254.652 C279.013,269.307 265.828,280.212 249.995,280.212 C231.957,280.212 217.353,266.075 216.411,248.332 C218.203,231.664 232.239,219.000 249.496,219.000 ZM249.995,130.187 C225.683,130.187 205.977,110.546 205.977,86.320 C205.977,62.093 225.683,42.453 249.995,42.453 C274.303,42.453 294.009,62.093 294.009,86.320 C294.009,110.546 274.303,130.187 249.995,130.187 ZM249.994,45.637 C227.411,45.637 209.045,63.946 209.045,86.449 C209.045,108.950 227.411,127.255 249.994,127.255 C272.576,127.255 290.944,108.950 290.944,86.449 C290.944,63.946 272.576,45.637 249.994,45.637 ZM249.995,125.268 C228.480,125.268 211.039,107.885 211.039,86.446 C211.039,65.007 228.480,47.625 249.995,47.625 C271.506,47.625 288.948,65.007 288.948,86.446 C288.948,107.885 271.506,125.268 249.995,125.268 ZM275.493,113.082 L276.720,113.082 L276.720,111.862 L275.493,111.862 L275.493,113.082 ZM249.995,124.116 L250.860,123.251 L249.995,122.388 L249.127,123.251 L249.995,124.116 ZM223.269,113.082 L224.494,113.082 L224.494,111.862 L223.269,111.862 L223.269,113.082 ZM213.064,85.583 L212.199,86.447 L213.064,87.311 L213.931,86.447 L213.064,85.583 ZM224.494,59.811 L223.269,59.811 L223.269,61.033 L224.494,61.033 L224.494,59.811 ZM249.995,48.778 L249.127,49.643 L249.995,50.505 L250.860,49.643 L249.995,48.778 ZM276.720,59.811 L275.493,59.811 L275.493,61.033 L276.720,61.033 L276.720,59.811 ZM286.923,87.311 L287.790,86.447 L286.923,85.583 L286.055,86.447 L286.923,87.311 ZM284.203,86.449 C284.203,84.539 283.942,82.697 283.638,80.873 C283.966,82.655 284.258,84.453 284.298,86.320 L284.318,85.573 C284.318,66.680 268.951,51.365 249.995,51.365 C231.038,51.365 215.668,66.680 215.668,85.573 L215.688,86.320 C215.728,84.443 216.021,82.635 216.353,80.844 C216.046,82.678 215.785,84.529 215.785,86.449 C215.785,88.469 216.043,90.426 216.383,92.351 C216.024,90.483 215.731,88.589 215.688,86.625 L215.668,87.374 C215.668,106.266 231.038,121.582 249.995,121.582 C268.951,121.582 284.318,106.266 284.318,87.374 L284.298,86.625 C284.257,88.578 283.964,90.464 283.607,92.323 C283.944,90.407 284.203,88.460 284.203,86.449 ZM249.995,119.544 C231.654,119.544 216.782,104.726 216.782,86.446 C216.782,68.169 231.654,53.349 249.995,53.349 C268.335,53.349 283.203,68.169 283.203,86.446 C283.203,104.726 268.335,119.544 249.995,119.544 ZM250.298,55.290 C233.132,55.290 219.214,69.160 219.214,86.269 C219.214,103.380 233.132,117.250 250.298,117.250 C267.466,117.250 281.384,103.380 281.384,86.269 C281.384,69.160 267.466,55.290 250.298,55.290 ZM264.401,87.881 C264.401,79.863 257.877,73.363 249.832,73.363 C242.824,73.363 236.979,78.301 235.588,84.872 C236.385,77.605 242.491,71.928 249.995,71.928 C258.039,71.928 264.563,78.429 264.563,86.446 C264.563,87.471 264.451,88.467 264.249,89.431 L264.401,87.881 ZM249.832,73.842 C257.802,73.842 264.260,80.076 264.260,88.019 L264.063,90.026 C262.455,96.303 256.792,100.965 249.995,100.965 C242.179,100.965 235.852,94.813 235.496,87.111 C235.976,79.617 242.175,73.842 249.832,73.842 ZM179.825,401.968 C194.363,401.968 206.148,413.714 206.148,428.202 C206.148,442.693 194.363,454.440 179.825,454.440 C165.285,454.440 153.500,442.693 153.500,428.202 C153.500,413.714 165.285,401.968 179.825,401.968 ZM179.825,449.525 C191.163,449.525 200.439,440.731 201.167,429.612 L201.215,428.202 C201.215,416.430 191.636,406.881 179.825,406.881 C172.598,406.881 166.219,410.452 162.343,415.915 C159.879,419.390 158.428,423.625 158.428,428.202 C158.428,439.979 168.008,449.525 179.825,449.525 ZM165.601,418.209 C168.866,413.607 174.181,410.858 179.823,410.858 C189.415,410.858 197.223,418.640 197.223,428.204 L197.185,429.357 C196.592,438.436 188.964,445.549 179.823,445.549 C170.222,445.549 162.414,437.768 162.414,428.204 C162.414,424.608 163.521,421.152 165.601,418.209 ZM320.170,401.968 C334.706,401.968 346.491,413.714 346.491,428.202 C346.491,442.693 334.706,454.440 320.170,454.440 C305.631,454.440 293.844,442.693 293.844,428.202 C293.844,413.714 305.631,401.968 320.170,401.968 ZM320.168,449.525 C331.509,449.525 340.783,440.731 341.510,429.612 L341.561,428.202 C341.561,416.430 331.982,406.881 320.168,406.881 C312.944,406.881 306.565,410.452 302.691,415.915 C300.225,419.390 298.776,423.625 298.776,428.202 C298.776,439.979 308.353,449.525 320.168,449.525 ZM305.951,418.209 C309.217,413.607 314.531,410.858 320.165,410.858 C329.765,410.858 337.573,418.640 337.573,428.204 L337.526,429.357 C336.934,438.436 329.306,445.549 320.165,445.549 C310.572,445.549 302.764,437.768 302.764,428.204 C302.764,424.600 303.863,421.145 305.951,418.209 Z" class="cls-1"/>
</svg>
