<?xml version="1.0" encoding="iso-8859-1"?>
<!-- Generator: Adobe Illustrator 19.0.0, SVG Export Plug-In . SVG Version: 6.00 Build 0)  -->
<svg version="1.1" id="Capa_1" xmlns="http://www.w3.org/2000/svg" xmlns:xlink="http://www.w3.org/1999/xlink" x="0px" y="0px"
	 viewBox="0 0 480 480" style="enable-background:new 0 0 480 480;" xml:space="preserve">
<g>
	<g>
		<path d="M384,0H96c-4.418,0-8,3.582-8,8v464c0,4.418,3.582,8,8,8h288c4.418,0,8-3.582,8-8V8C392,3.582,388.418,0,384,0z M376,464
			H104V16h272V464z"/>
	</g>
</g>
<g>
	<g>
		<path d="M240,216c-61.856,0-112,50.144-112,112c0.066,61.828,50.172,111.934,112,112c61.856,0,112-50.144,112-112
			S301.856,216,240,216z M240,424c-53.019,0-96-42.981-96-96c0.057-52.996,43.004-95.943,96-96c53.019,0,96,42.981,96,96
			S293.019,424,240,424z"/>
	</g>
</g>
<g>
	<g>
		<path d="M240,256c-39.764,0-72,32.235-72,72c0.044,39.746,32.254,71.956,72,72c39.765,0,72-32.236,72-72
			C312,288.235,279.765,256,240,256z M240,384c-30.928,0-56-25.072-56-56c0.04-30.911,25.089-55.96,56-56c30.928,0,56,25.072,56,56
			C296,358.928,270.928,384,240,384z"/>
	</g>
</g>
<g>
	<g>
		<path d="M240,88c-30.928,0-56,25.072-56,56c0.04,30.911,25.089,55.96,56,56c30.928,0,56-25.072,56-56
			C296,113.072,270.928,88,240,88z M240,184c-22.091,0-40-17.909-40-40c0.026-22.08,17.92-39.974,40-40c22.091,0,40,17.909,40,40
			S262.091,184,240,184z"/>
	</g>
</g>
<g>
	<g>
		<circle cx="136" cy="48" r="16"/>
	</g>
</g>
<g>
	<g>
		<circle cx="344" cy="48" r="16"/>
	</g>
</g>
<g>
	<g>
		<circle cx="136" cy="432" r="16"/>
	</g>
</g>
<g>
	<g>
		<circle cx="344" cy="432" r="16"/>
	</g>
</g>
<g>
</g>
<g>
</g>
<g>
</g>
<g>
</g>
<g>
</g>
<g>
</g>
<g>
</g>
<g>
</g>
<g>
</g>
<g>
</g>
<g>
</g>
<g>
</g>
<g>
</g>
<g>
</g>
<g>
</g>
</svg>
