<svg xmlns="http://www.w3.org/2000/svg" xmlns:xlink="http://www.w3.org/1999/xlink" preserveAspectRatio="xMidYMid" width="500" height="500" viewBox="0 0 500 500">
  <defs>
    <style>
      .cls-1 {
        fill: #000;
        fill-rule: evenodd;
      }
    </style>
  </defs>
  <path d="M395.158,418.266 L374.876,418.266 L374.876,440.885 L335.846,440.885 L335.846,418.266 L315.573,418.266 C311.226,418.266 307.695,414.754 307.695,410.416 L307.695,28.816 C307.695,24.476 311.226,20.973 315.573,20.973 L395.144,20.973 C399.491,20.973 403.022,24.476 403.022,28.816 L403.022,410.416 C403.022,414.754 399.507,418.266 395.158,418.266 ZM355.359,45.735 C344.100,45.735 334.935,54.867 334.935,66.102 C334.935,77.337 344.100,86.461 355.359,86.461 C366.628,86.461 375.787,77.337 375.787,66.102 C375.787,54.867 366.628,45.735 355.359,45.735 ZM355.359,115.918 C333.636,115.918 316.028,133.496 316.028,155.149 C316.028,176.810 333.636,194.369 355.359,194.369 C377.094,194.369 394.702,176.810 394.702,155.149 C394.702,133.496 377.094,115.918 355.359,115.918 ZM355.359,216.563 C333.636,216.563 316.028,234.122 316.028,255.791 C316.028,277.457 333.636,295.005 355.359,295.005 C377.094,295.005 394.702,277.457 394.702,255.791 C394.702,234.122 377.094,216.563 355.359,216.563 ZM355.359,317.205 C333.636,317.205 316.028,334.765 316.028,356.419 C316.028,378.088 333.636,395.638 355.359,395.638 C377.094,395.638 394.702,378.088 394.702,356.419 C394.702,334.765 377.094,317.205 355.359,317.205 ZM355.359,388.731 C337.463,388.731 322.954,374.261 322.954,356.419 C322.954,338.571 337.463,324.102 355.359,324.102 C373.260,324.102 387.779,338.571 387.779,356.419 C387.779,374.261 373.260,388.731 355.359,388.731 ZM355.359,340.702 C346.661,340.702 339.593,347.758 339.593,356.419 C339.593,365.086 346.661,372.143 355.359,372.143 C364.072,372.143 371.135,365.086 371.135,356.419 C371.135,347.758 364.072,340.702 355.359,340.702 ZM355.359,288.095 C337.463,288.095 322.954,273.639 322.954,255.791 C322.954,237.937 337.463,223.467 355.359,223.467 C373.260,223.467 387.779,237.937 387.779,255.791 C387.779,273.639 373.260,288.095 355.359,288.095 ZM355.359,240.048 C346.661,240.048 339.593,247.101 339.593,255.791 C339.593,264.464 346.661,271.508 355.359,271.508 C364.072,271.508 371.135,264.464 371.135,255.791 C371.135,247.101 364.072,240.048 355.359,240.048 ZM355.359,187.463 C337.463,187.463 322.954,172.992 322.954,155.149 C322.954,137.295 337.463,122.832 355.359,122.832 C373.260,122.832 387.779,137.295 387.779,155.149 C387.779,172.992 373.260,187.463 355.359,187.463 ZM355.359,139.434 C346.661,139.434 339.593,146.477 339.593,155.149 C339.593,163.817 346.661,170.863 355.359,170.863 C364.072,170.863 371.135,163.817 371.135,155.149 C371.135,146.466 364.072,139.434 355.359,139.434 ZM355.359,79.094 C348.168,79.094 342.334,73.274 342.334,66.102 C342.334,58.931 348.168,53.102 355.359,53.102 C362.563,53.102 368.391,58.931 368.391,66.102 C368.391,73.274 362.563,79.094 355.359,79.094 ZM184.485,418.266 L164.211,418.266 L164.211,440.885 L125.175,440.885 L125.175,418.266 L104.905,418.266 C100.556,418.266 97.025,414.754 97.025,410.416 L97.025,28.816 C97.025,24.476 100.556,20.973 104.905,20.973 L184.485,20.973 C188.834,20.973 192.354,24.476 192.361,28.816 L192.361,410.404 C192.361,414.745 188.834,418.266 184.485,418.266 ZM144.692,45.735 C133.428,45.735 124.267,54.867 124.267,66.102 C124.267,77.337 133.428,86.461 144.692,86.461 C155.956,86.461 165.121,77.337 165.121,66.102 C165.121,54.867 155.956,45.735 144.692,45.735 ZM144.692,115.918 C122.963,115.918 105.354,133.496 105.354,155.149 C105.354,176.810 122.963,194.369 144.692,194.369 C166.420,194.369 184.035,176.810 184.035,155.149 C184.035,133.496 166.420,115.918 144.692,115.918 ZM144.692,216.563 C122.963,216.563 105.354,234.122 105.354,255.791 C105.354,277.457 122.963,295.005 144.692,295.005 C166.420,295.005 184.035,277.457 184.035,255.791 C184.035,234.122 166.420,216.563 144.692,216.563 ZM144.692,317.205 C122.963,317.205 105.354,334.765 105.354,356.419 C105.354,378.088 122.963,395.638 144.692,395.638 C166.420,395.638 184.035,378.088 184.035,356.419 C184.035,334.765 166.420,317.205 144.692,317.205 ZM144.692,388.731 C126.795,388.731 112.287,374.261 112.287,356.419 C112.287,338.571 126.795,324.102 144.692,324.102 C162.593,324.102 177.102,338.571 177.102,356.419 C177.102,374.261 162.593,388.731 144.692,388.731 ZM144.692,340.702 C135.988,340.702 128.926,347.758 128.926,356.419 C128.926,365.086 135.988,372.143 144.692,372.143 C153.400,372.143 160.462,365.086 160.462,356.419 C160.462,347.758 153.400,340.702 144.692,340.702 ZM144.692,288.095 C126.795,288.095 112.287,273.639 112.287,255.791 C112.287,237.937 126.795,223.467 144.692,223.467 C162.593,223.467 177.102,237.937 177.102,255.791 C177.102,273.639 162.593,288.095 144.692,288.095 ZM144.692,240.048 C135.988,240.048 128.926,247.101 128.926,255.791 C128.926,264.464 135.988,271.508 144.692,271.508 C153.400,271.508 160.462,264.464 160.462,255.791 C160.462,247.101 153.400,240.048 144.692,240.048 ZM144.692,187.463 C126.795,187.463 112.287,172.992 112.287,155.149 C112.287,137.295 126.795,122.832 144.692,122.832 C162.593,122.832 177.102,137.295 177.102,155.149 C177.102,172.992 162.593,187.463 144.692,187.463 ZM144.692,139.434 C135.988,139.434 128.926,146.477 128.926,155.149 C128.926,163.817 135.988,170.863 144.692,170.863 C153.400,170.863 160.462,163.817 160.462,155.149 C160.462,146.466 153.400,139.434 144.692,139.434 ZM144.692,79.094 C137.496,79.094 131.662,73.274 131.662,66.102 C131.662,58.931 137.496,53.102 144.692,53.102 C151.889,53.102 157.726,58.931 157.726,66.102 C157.726,73.274 151.889,79.094 144.692,79.094 ZM120.535,450.582 L165.569,450.582 L165.569,464.177 L186.064,464.177 L186.064,478.474 L103.323,478.474 L103.323,464.177 L120.535,464.177 L120.535,450.582 ZM330.978,451.092 L376.012,451.092 L376.012,464.687 L395.205,464.687 L395.205,478.984 L312.464,478.984 L312.464,464.687 L330.978,464.687 L330.978,451.092 Z" class="cls-1"/>
</svg>
